<svg xmlns="http://www.w3.org/2000/svg" width="760.405" height="199.864" viewBox="0 0 760.405 199.864">
  <g id="Group_5294" data-name="Group 5294" transform="translate(-597.957 -302.136)">
    <g id="Blerp_fullwordmarkIbisredNew_1x" data-name="Blerp fullwordmarkIbisredNew@1x" transform="translate(608.311 304.46)">
      <g id="Layer_2" data-name="Layer 2" transform="translate(-10.354 -2.323)">
        <path id="Path_1731" data-name="Path 1731" d="M179.322,79.314c-4.366-22.875,15.637-39.746,1.9-56.783-18.627-23.112-41.454,8.447-62.359-.641C105.288,15.982,91.668-3.95,71.641,3.334S53.963,34.656,47.461,47.9C37.21,68.3-.566,58.812,0,88.5c.451,21.878,26.6,21.949,37.966,42.261S23.115,175.7,46.7,195.158c28.569,23.586,57.471-24.346,82.529-33.529h0c25.01-9.136,78.068,9.183,84.807-27.383C219.566,104.181,183.593,101.832,179.322,79.314ZM115.3,123.354c-18.081,6.6-37.966-.973-49.474-16.61a7.119,7.119,0,0,1,5.007-11.319A140,140,0,0,0,102.3,87.809a140.829,140.829,0,0,0,29.02-14.4,7.119,7.119,0,0,1,11.058,5.268C143.7,98.178,133.359,116.71,115.3,123.354Z" transform="translate(0.003 -1.754)" fill="#fff"/>
        <path id="Path_1732" data-name="Path 1732" d="M335.374,20.391c-11.328-.476-19.4,1.537-26.023,5.014-7.5,3.953-21.961,14.494-21.961,38.962v57.848a14.951,14.951,0,1,0,29.9,0V67.973c0-10.01,6.387-17.623,18.044-17.459A14.494,14.494,0,0,0,350.71,35.581C350.728,26.76,344.085,20.757,335.374,20.391Z" transform="translate(287.65 27.888)" fill="#fff"/>
        <path id="Path_1733" data-name="Path 1733" d="M202.009,153.964a15.244,15.244,0,0,1-15.3-15.061V14.88a15.189,15.189,0,0,1,30.361,0V138.9a15.19,15.19,0,0,1-15.061,15.061Z" transform="translate(204.08 11.2)" fill="#fff"/>
        <path id="Path_1734" data-name="Path 1734" d="M387.61,19.121a59.349,59.349,0,0,1-4.392,118.514,59.99,59.99,0,0,1-26.792-6.5,1.83,1.83,0,0,0-2.654,1.629V158.26A14.988,14.988,0,0,1,338.711,173.1a14.457,14.457,0,0,1-14.641-14.146V78.287a59.239,59.239,0,0,1,63.54-59.166Zm-4.392,29.738a29.281,29.281,0,1,0,20.8,8.524,29.281,29.281,0,0,0-20.8-8.524Z" transform="translate(318.096 26.761)" fill="#fff"/>
        <path id="Path_1735" data-name="Path 1735" d="M169.951,154.145a59.056,59.056,0,0,0,59.111-59.111h0a59.294,59.294,0,0,0-59.111-59.568,60.044,60.044,0,0,0-26.792,6.5,1.83,1.83,0,0,1-2.635-1.647V15.336A15.354,15.354,0,0,0,125.481,0c-8.125,0-14.64,5.49-14.64,14.146V94.8a59.239,59.239,0,0,0,59.111,59.349Zm0-29.9a29.281,29.281,0,1,1,20.811-8.517A29.281,29.281,0,0,1,169.951,124.242Z" transform="translate(141.104 11.019)" fill="#fff"/>
        <path id="Path_1736" data-name="Path 1736" d="M309.186,73.754c7.778-5.49,15.135-12.1,15.08-18.41,0-7.961-7.412-17.111-15.7-23.5a58.818,58.818,0,0,0-55.688-9.15c-40.554,14.878-51.5,68.755-21.046,98.274,26.316,25.511,68.92,22.07,92.418-7.522,4.52-5.691,2.69-14.531-3.386-19.051s-13.048-3.66-18.9,2.983c-13.744,14.952-38.76,17.605-52.76,1.83a1.83,1.83,0,0,1,1.08-3.02A164.7,164.7,0,0,0,278,88.87a135.864,135.864,0,0,0,31.184-15.116ZM261.4,45c13.542-5.014,27.725-.494,34.387,9.15a1.83,1.83,0,0,1-.549,2.58A140.122,140.122,0,0,1,270.682,68.52a174.254,174.254,0,0,1-28.036,7.32,1.83,1.83,0,0,1-2.123-1.72C240.083,62.444,247.953,49.981,261.4,45Z" transform="translate(227.056 27.103)" fill="#fff"/>
      </g>
    </g>
  </g>
</svg>
