<svg width="30" height="27" viewBox="0 0 30 27" fill="none" xmlns="http://www.w3.org/2000/svg">
<path d="M24.2906 10.4779C23.6991 7.38763 26.4088 5.1085 24.5478 2.80689C22.0247 -0.315263 18.9326 3.94815 16.1008 2.72037C14.2623 1.92232 12.4174 -0.770486 9.70471 0.213626C6.992 1.19774 7.31019 4.44474 6.4295 6.23371C5.04104 8.99055 -0.0758518 7.70837 0.00085328 11.7185C0.0618386 14.674 3.60391 14.684 5.1435 17.4277C6.6831 20.1713 3.13175 23.4989 6.32666 26.1275C10.1966 29.3139 14.1108 22.8386 17.5055 21.5981C20.8932 20.3639 28.08 22.8388 28.9929 17.8989C29.7418 13.8373 24.8685 13.5199 24.2906 10.4779ZM15.6188 16.4279C13.1695 17.319 10.4761 16.2956 8.91721 14.1841C8.81583 14.0475 8.75254 13.8866 8.73376 13.7178C8.71498 13.5489 8.7414 13.3781 8.81031 13.2228C8.87923 13.0674 8.98818 12.933 9.12609 12.8333C9.264 12.7335 9.42594 12.672 9.59543 12.655C11.051 12.4775 12.481 12.1321 13.8568 11.6259C15.238 11.1303 16.5572 10.4773 17.7883 9.67999C17.9273 9.58693 18.0881 9.53156 18.2551 9.51933C18.422 9.50709 18.5893 9.53841 18.7404 9.61021C18.8915 9.682 19.0213 9.7918 19.117 9.9288C19.2127 10.0658 19.2709 10.2253 19.286 10.3915C19.4661 13.0264 18.0648 15.5303 15.6188 16.4279Z" fill="white"/>
</svg>
